<svg xmlns="http://www.w3.org/2000/svg" width="126.6" height="32.663" viewBox="0 0 3000 774">
  <defs>
    <style>
      .cls-1 {
        fill: #fff9f9;
        fill-rule: evenodd;
      }
    </style>
  </defs>
  <path id="Love_is_war_copy" data-name="Love is war copy" class="cls-1" d="M275.468,583.7c-129.2,109.25-195.7,45.6-190.95,6.65,2.85-23.75,28.5-45.6,78.851-45.6C199.468,544.754,237.468,562.8,275.468,583.7Zm340.1-376.2c33.25-31.35,66.5-56.05,96.9-73.15,63.65-35.15,113.05-37.05,109.25-13.3C815.069,159.054,744.769,209.4,615.569,207.5Zm-196.651-97.85c-3.8-11.4-25.649,8.55-18.05,24.7,28.5,63.65,87.4,90.25,151.051,98.8-56.05,67.45-103.55,144.4-150.1,208.05-38.951,54.15-75.05,94.05-107.351,124.45-38-20.9-79.8-41.8-130.15-46.55-75.05-5.7-114,31.35-115.9,70.3-3.8,59.85,95.95,138.7,254.6,9.5,46.551,25.65,92.151,49.4,134.9,46.55,79.8-4.75,124.45-81.7,123.5-97.85-0.95-10.45-14.25-25.65-19.95-17.1-1.9,2.85-39.9,88.35-111.151,88.35-37.049,0-71.25-17.1-107.349-37.05,33.249-29.45,68.4-67.45,105.45-116.85,73.15-95.95,129.2-194.75,151.05-219.45l7.6-8.55c45.6,0.95,90.25-4.75,124.45-11.4,92.15-19.95,159.6-95.95,133-130.15-26.6-35.15-96.9-18.05-141.55,5.7-47.5,25.65-89.3,62.7-127.3,104.5C445.518,193.254,422.719,119.154,418.918,109.654Zm268.842,351.5c69.35-49.4,124.45-6.65,27.55,111.15-33.25,39.9-57.95,53.2-77.9,55.1-34.2,1.9-62.7-63.65,50.35-158.65C689.66,466.854,689.66,464,687.76,461.154Zm-25.65-5.7c-0.95.95-.95,2.85-0.95,3.8-15.2,11.4-38.95,32.3-57,57.95-75.05,109.25,9.5,197.6,112.1,92.15,123.5-126.35,87.4-213.75-1.9-188.1C693.46,426.954,664.96,445,662.11,455.454ZM927.146,597c38.95-39.9,84.554-103.55,110.2-157.7,2.85-5.7-3.8-27.55-16.15-19.95-11.4,6.65-47.5,98.8-161.5,198.55-24.7,22.8-45.6-2.85-27.55-45.6S903.4,457.354,911,447.854c6.65-8.55-17.1-17.1-22.8-12.35-4.75,4.75-81.7,76-91.2,143.45-8.55,65.55,30.4,79.8,41.8,79.8C851.146,658.754,863.5,660.654,927.146,597Zm122.534-28.5c7.6-27.55,27.55-59.85,52.25-82.65,66.5-58.9,98.8-42.75,32.3,21.85C1108.58,532.4,1068.68,558.054,1049.68,568.5Zm113.05,37.05c-75.05,37.05-108.3,25.65-114.95-3.8,27.55-12.35,105.45-73.15,122.55-92.15,76.95-89.3,5.7-130.15-99.75-34.2-44.65,40.85-65.55,94.05-50.35,132.05,12.35,35.15,43.7,52.25,92.15,45.6,59.85-8.55,133.95-81.7,137.75-86.45,4.75-4.75,6.65-33.25-4.75-23.75C1215.93,569.454,1187.43,593.2,1162.73,605.554Zm305.88,14.25c22.8,1.9,56.05-14.25,127.3-76.95,10.45-9.5,8.55,19,4.75,23.75-4.75,4.75-104.5,108.3-162.45,67.45-30.4-20.9-18.05-72.2,21.85-128.25,32.3-47.5,50.35-71.25,57-76,7.6-5.7,23.75,13.3,15.2,25.65-6.65,10.45-59.85,79.8-73.15,112.1C1444.86,599.854,1448.66,617.9,1468.61,619.8Zm110.2-261.25c-15.2-7.6-33.25,0-40.85,15.2-6.65,13.3-5.7,32.3,8.55,37.05C1575.96,421.254,1604.46,369.954,1578.81,358.554Zm88.34,283.1c-4.75.95-9.5,1.9-15.2,0.95-36.1-2.85-57-54.15-38.95-80.75C1614.9,559,1623.45,621.7,1667.15,641.654Zm28.5-193.8c-2.85-6.65-3.8-14.25-.95-21.85,9.5-37.05,33.25-39.9,35.15-29.45C1731.75,404.154,1716.55,425.054,1695.65,447.854Zm-79.8,77.9c-8.55-10.45-35.15-4.75-36.1,44.65-1.9,52.25,31.35,103.55,83.6,96.9a96.134,96.134,0,0,0,43.7-19c52.25-7.6,120.65-76.95,124.45-81.7,4.75-4.75,6.65-33.25-4.75-23.75-43.7,38.95-72.2,59.85-93.1,70.3,9.5-19,13.3-41.8,12.35-65.55-0.95-36.1-23.75-57.95-38.95-78.85,19-20.9,35.15-40.85,43.7-56.05,15.2-28.5,14.25-46.55-7.6-50.35s-61.75,25.65-68.4,60.8c-2.85,14.25-.95,27.55,4.75,40.85C1657.65,486.8,1633.9,509.6,1615.85,525.754Zm84.55,94.05c-31.35-4.75-59.85-47.5-74.1-74.1,18.05-16.15,41.8-38,63.65-59.85,12.35,23.75,27.55,48.45,27.55,79.8C1717.5,586.554,1710.85,606.5,1700.4,619.8Zm429.39-30.4c-2.85,17.1-1.9,69.35,39.9,70.3,76.95,1.9,192.85-194.75,199.5-217.55,3.8-11.4-15.2-26.6-17.1-20.9-19.95,50.35-127.3,190-166.25,204.25-59.85,20.9-16.15-78.85,9.5-112.1,26.6-32.3,32.3-38,37.05-41.8,5.7-3.8-3.8-32.3-21.85-21.85-15.2,8.55-35.15,39.9-45.6,56.05-33.25,51.3-112.1,128.25-131.1,115.9-13.3-7.6.95-40.85,13.3-63.65,26.6-49.4,76-100.7,76-100.7,3.8-2.85-4.75-20.9-23.75-12.35-12.35,5.7-90.25,79.8-97.85,141.55-5.7,47.5,11.4,70.3,35.15,67.45s70.3-42.75,94.05-69.35Zm573.79-22.8c4.75-4.75,6.65-33.25-4.75-23.75-30.4,26.6-57.95,45.6-83.6,57.95-87.4,43.7-115.9,9.5-55.1-83.6,21.85-23.75,46.55-48.45,46.55-51.3,0-4.75-19.95-21.85-27.55-18.05-2.85.95-9.5,8.55-18.05,19-4.75-23.75-24.7-38.95-47.5-38.95-25.65,0-95,21.85-146.3,94.05-51.3,73.15-27.55,128.25,7.6,133.95,30.4,4.75,56.05-1.9,127.3-76-14.25,47.5,15.2,80.75,63.65,73.15C2625.68,643.554,2698.83,571.354,2703.58,566.6Zm-180.5-47.5c-6.65,5.7-93.1,114.95-139.65,102.6-49.4-12.35,40.85-163.4,126.35-163.4,38.95,0,21.85,47.5,21.85,47.5h0.95Zm255.55-66.5c-6.65-2.85-9.5-8.55-7.6-19,3.8-23.75,33.25-29.45,23.75-7.6C2792.88,430.754,2786.23,440.254,2778.63,452.6Zm40.85,195.7c45.6,1.9,124.45-76.95,129.2-81.7,3.8-4.75,5.7-33.25-4.75-23.75-71.25,62.7-103.55,79.8-123.5,77.9-51.3-5.7,19.95-103.55,40.85-129.2,39.9-46.55,13.3-65.55-27.55-50.35-7.6,2.85-19.95,7.6-31.35,10.45,7.6-12.35,14.25-23.75,19-35.15,17.1-43.7-56.05-49.4-70.3,10.45-4.75,21.85,3.8,34.2,16.15,40.85-19.95,25.65-48.45,58.9-77.9,83.6-3.8,2.85,1.89,27.55,8.55,21.85,33.25-32.3,66.5-68.4,91.2-101.65,21.85-.95,45.6-13.3,51.3-8.55,4.75,4.75-3.8,19.95-23.75,42.75C2752.03,581.8,2763.43,646.4,2819.48,648.3Z"/>
</svg>
